<svg width="375" height="336" viewBox="0 0 375 336" fill="none" xmlns="http://www.w3.org/2000/svg">
<path d="M-12.8563 144.424C-13.9828 144.68 -8.13326 141.812 -7.54527 141.612C-2.95893 140.053 1.60149 138.421 6.143 136.738C19.5786 131.758 32.8549 126.338 45.9534 120.468C75.2694 107.33 105.735 93.4734 128.427 66.1331C137.2 55.5628 147.731 41.1486 148.511 20.943C148.585 19.0395 147.321 12.9602 148.188 14.9452C149.29 17.4718 149.811 19.7089 151.81 21.1662C151.885 21.2213 152.112 21.3256 152.038 21.3067C141.362 18.6018 130.613 28.0076 122.759 33.3979C102.303 47.4368 80.6561 66.9336 70.4532 97.5886C67.7286 105.775 59.3716 142.93 71.9764 153.932C88.2902 168.173 115.598 157.476 127.458 151.895C169.327 132.193 199.607 88.8722 232.526 51.6269C235.997 47.6999 239.494 43.8187 242.99 39.935C245.694 36.9309 248.395 33.9212 251.065 30.8574C256.02 25.1706 272.705 -3.68017 283.274 10.3063C295.088 25.9415 277.062 66.6886 273.761 75.5945C272.013 80.311 270.205 84.9598 268.374 89.5785C265.258 97.439 262.138 105.37 259.919 114.228C259.384 116.363 258.525 127.976 257.529 125.791C256.851 124.304 259.572 126.247 260.519 126.154C262.785 125.932 264.897 125.146 266.934 124.251C272.856 121.649 278.312 117.832 283.602 113.796C295.852 104.447 306.382 89.1392 319.952 82.729C326.332 79.7153 334.988 84.199 337.313 98.0709C341.802 124.858 333.474 152.13 329.152 172.881C316.048 235.802 291.795 287.174 252.956 314.04C240.575 322.604 227.582 332.467 212.835 334.858C206.43 335.896 197.448 334.459 191.245 324.022C184.343 312.409 184.987 298.587 186.966 288.705C191.794 264.607 202.946 245.898 214.613 230.511C254.308 178.159 329.421 139.826 387.838 125.973C388.249 125.876 380.707 129.476 379.379 129.98C372.919 132.429 366.572 135.182 360.294 138.107C341.938 146.659 324.177 156.723 306.96 167.961C275.847 188.27 244.709 210.88 221.884 246.616C214.369 258.382 207.483 271.466 202.774 286.85C201.242 291.855 199.907 297.159 199.274 302.995C199.019 305.342 198.862 307.823 199.071 310.443C199.136 311.268 199.9 313.622 199.279 312.831C198.086 311.314 201.969 313.853 203.223 313.867C205.728 313.895 208.081 313.272 210.332 312.467C217.592 309.869 223.981 305.017 230.552 300.757C250.695 287.699 268.583 270.947 283.051 247.522C299.791 220.417 311.621 186.793 320.368 150.194C323.062 138.92 325.615 127.414 327.225 115.173C327.658 111.885 328.108 95.4973 328.439 95.784C329.638 96.8228 326.127 95.7752 325.096 96.1592C323.24 96.851 321.53 97.9401 319.881 99.1211C314.695 102.834 310.157 107.823 305.149 111.891C294.632 120.435 284.517 130.156 272.759 136.038C268.342 138.248 262.116 141.811 256.195 137.222C239.982 124.656 257.518 83.9287 260.315 75.9224C261.915 71.3438 263.487 66.7332 265.016 62.0749C268.061 52.7952 271.013 43.3683 273.385 33.3857C274.163 30.1084 274.89 26.764 275.39 23.2365C275.638 21.4857 275.191 15.67 275.779 17.7197C276.713 20.9799 278.551 23.8058 280.785 24.1851C281.821 24.3609 279.052 25.0395 278.28 25.6681C276.792 26.8782 275.428 28.3374 274.116 29.8717C269.956 34.7391 266.291 40.4278 262.147 45.3364C249.93 59.8095 236.601 72.3415 223.216 84.6872C189.108 116.145 155.282 150.624 113.99 166.793C102.521 171.284 77.7916 178.994 63.786 158.063C49.4694 136.666 54.694 101.921 58.8356 85.4301C68.5112 46.9038 94.3922 22.8834 119.491 9.05476C127.991 4.3712 140.171 -3.97397 151.668 2.18184C161.434 7.41088 162.309 22.48 161.225 32.3327C158.798 54.372 147.435 69.2746 136.691 80.5385C99.3569 119.682 36.4449 133.208 -12.8563 144.424Z" fill="#8EC2F5" fill-opacity="0.5"/>
</svg>
